<svg width="1440" height="775" viewBox="0 0 1440 775" fill="none" xmlns="http://www.w3.org/2000/svg">
<path d="M374.809 1319.96L639.259 535.823H874.359L609.672 1319.96H374.809Z" stroke="#00C598" stroke-width="0.56" stroke-miterlimit="10"/>
<path d="M161.774 1046.45L426.224 262.313H661.324L396.637 1046.45H161.774Z" stroke="#5A2CAF" stroke-width="0.56" stroke-miterlimit="10"/>
<path d="M-124 1415.66L140.45 631.523H375.55L110.863 1415.66H-124Z" stroke="#AFF9E5" stroke-width="0.56" stroke-miterlimit="10"/>
<path d="M-72.259 784.14L192.191 0H427.291L162.604 784.14H-72.259Z" stroke="#00C598" stroke-width="0.56" stroke-miterlimit="10"/>
<path d="M403.39 788.214L667.81 4.10547H902.939L638.252 788.214H403.39Z" stroke="#00C598" stroke-width="0.56" stroke-miterlimit="10"/>
<path d="M955.45 1046.45L1219.9 262.313H1455L1190.31 1046.45H955.45Z" stroke="#5A2CAF" stroke-width="0.56" stroke-miterlimit="10"/>
<path d="M669.676 1415.66L934.096 631.523H1169.23L904.539 1415.66H669.676Z" stroke="#AFF9E5" stroke-width="0.56" stroke-miterlimit="10"/>
<path d="M721.417 784.14L985.867 0H1220.97L956.28 784.14H721.417Z" stroke="#00C598" stroke-width="0.56" stroke-miterlimit="10"/>
</svg>
